<svg xmlns="http://www.w3.org/2000/svg" viewBox="0 0 64 64"><g data-name="Layer 25"><path fill="#fccb7e" d="M63,40V55H1V40a31,31,0,0,1,62,0Z"/><path fill="#fdd598" d="M32,9c-.5,0-1,.014-1.5.038A31,31,0,0,1,60,40V55h3V40A31,31,0,0,0,32,9Z"/><path fill="#8cc63f" d="M61.78,43.4A30.921,30.921,0,0,1,63,52v3H1V52a30.921,30.921,0,0,1,1.22-8.6A2.99,2.99,0,0,1,4,38c.11,0,.22.02.33.03l.18-.36A3,3,0,0,1,7,33a2.607,2.607,0,0,1,.48.05c.24-.32.49-.63.74-.93a2.994,2.994,0,0,1,3.9-3.9c.03-.03.07-.06.1-.09A3.033,3.033,0,0,1,12,27a3,3,0,0,1,5.07-2.17.219.219,0,0,1,.05-.03A3.035,3.035,0,0,1,17,24a2.993,2.993,0,0,1,5.57-1.53c.15-.05.31-.1.46-.15A3.163,3.163,0,0,1,23,22a2.994,2.994,0,0,1,5.87-.84.66.66,0,0,1,.14-.01c0-.05-.01-.1-.01-.15a3,3,0,0,1,6,0c0,.05-.01.1-.01.15a.66.66,0,0,1,.14.01A2.994,2.994,0,0,1,41,22a3.163,3.163,0,0,1-.03.32c.15.05.31.1.46.15A2.993,2.993,0,0,1,47,24a3.035,3.035,0,0,1-.12.8.219.219,0,0,1,.05.03,3,3,0,0,1,4.85,3.3c.03.03.07.06.1.09a2.994,2.994,0,0,1,3.9,3.9c.25.3.5.61.74.93A2.607,2.607,0,0,1,57,33a3,3,0,0,1,2.49,4.67l.18.36c.11-.01.22-.03.33-.03a2.99,2.99,0,0,1,1.78,5.4Z"/><path fill="#a3d165" d="M63,41a3,3,0,0,0-3-3c-.11,0-.22.02-.33.03l-.18-.36A3,3,0,0,0,57,33a2.607,2.607,0,0,0-.48.05c-.24-.32-.49-.63-.74-.93a2.994,2.994,0,0,0-3.9-3.9c-.03-.03-.07-.06-.1-.09A3.033,3.033,0,0,0,52,27a3,3,0,0,0-3-3,2.966,2.966,0,0,0-1.5.416A2.984,2.984,0,0,1,49,27a3.033,3.033,0,0,1-.22,1.13c.03.03.07.06.1.09a2.994,2.994,0,0,1,3.9,3.9c.25.3.5.61.74.93A2.607,2.607,0,0,1,54,33a3,3,0,0,1,2.49,4.67l.18.36c.11-.01.22-.03.33-.03a2.99,2.99,0,0,1,1.78,5.4A30.921,30.921,0,0,1,60,52v3h3V52a30.921,30.921,0,0,0-1.22-8.6A2.973,2.973,0,0,0,63,41Z"/><path fill="#603813" d="M62.98,55H1.02a31,31,0,0,1,61.96,0Z"/><path fill="#806042" d="M62.98,55h-3A30.985,30.985,0,0,0,30.57,25.04c.48-.03.95-.04,1.43-.04A30.988,30.988,0,0,1,62.98,55Z"/><path fill="#fccb7e" d="M62.6,55H1.4a31.007,31.007,0,0,1,61.2,0Z"/><path fill="#fdd598" d="M62.6,55h-4A31.011,31.011,0,0,0,30,29.07c.66-.05,1.33-.07,2-.07A31.011,31.011,0,0,1,62.6,55Z"/><path d="M32,8A32.036,32.036,0,0,0,0,40V55a1,1,0,0,0,1,1H63a1,1,0,0,0,1-1V40A32.036,32.036,0,0,0,32,8Zm0,2A30.035,30.035,0,0,1,61.887,37.488a3.976,3.976,0,0,0-1.037-.4A4.005,4.005,0,0,0,57,32h-.027l-.078-.1A3.942,3.942,0,0,0,57,31a4,4,0,0,0-4-4,4,4,0,0,0-5.09-3.848A4.007,4.007,0,0,0,44,20a3.948,3.948,0,0,0-2.224.679A4.008,4.008,0,0,0,38,18a3.962,3.962,0,0,0-2.573.938,4,4,0,0,0-6.854,0A3.962,3.962,0,0,0,26,18a4.008,4.008,0,0,0-3.776,2.679A3.948,3.948,0,0,0,20,20a4.007,4.007,0,0,0-3.91,3.152A4,4,0,0,0,11,27a4,4,0,0,0-4,4,3.942,3.942,0,0,0,.105.9l-.078.1A4.005,4.005,0,0,0,3.15,37.091a3.976,3.976,0,0,0-1.037.4A30.035,30.035,0,0,1,32,10ZM4.078,39.01H4.1l.144.016a1,1,0,0,0,.709-.227,31.793,31.793,0,0,0-2.079,3.855.753.753,0,0,0-.056-.057A1.978,1.978,0,0,1,2,41,2.01,2.01,0,0,1,4.078,39.01Zm1.258-1.9A1.957,1.957,0,0,1,5,36a1.988,1.988,0,0,1,2.3-1.967.994.994,0,0,0,.983-.384c.229-.3.469-.6.708-.888a1,1,0,0,0,.16-1.011,2,2,0,0,1,2.6-2.6.984.984,0,0,0,1.069-.212c.022-.019.094-.084.114-.105a1,1,0,0,0,.215-1.072A2.05,2.05,0,0,1,13,27a2,2,0,0,1,3.383-1.443,1.039,1.039,0,0,0,1.7-1.018A2.049,2.049,0,0,1,18,24a1.993,1.993,0,0,1,3.713-1.015,1,1,0,0,0,1.172.434l.463-.151a1,1,0,0,0,.677-1.05l-.014-.117c0-.033-.01-.067-.011-.1a1.994,1.994,0,0,1,3.911-.556A1.071,1.071,0,0,0,30,21a2,2,0,0,1,4-.022c0,.032-.01.14-.01.172a1.043,1.043,0,0,0,.987,1,1,1,0,0,0,1.112-.7A1.994,1.994,0,0,1,40,22c0,.035-.007.069-.011.1l-.014.117a1,1,0,0,0,.677,1.05l.463.151a1,1,0,0,0,1.172-.434A1.993,1.993,0,0,1,46,24a2.049,2.049,0,0,1-.085.539,1.012,1.012,0,0,0,.459,1.122,1,1,0,0,0,1.243-.1A2,2,0,0,1,51,27a2.05,2.05,0,0,1-.148.759,1,1,0,0,0,.215,1.072c.035.035.074.07.106.1a1,1,0,0,0,1.077.221,2,2,0,0,1,2.6,2.6,1,1,0,0,0,.16,1.011c.239.286.479.583.708.888a.994.994,0,0,0,.983.384A1.985,1.985,0,0,1,59,36a1.957,1.957,0,0,1-.336,1.107,1,1,0,0,0-.068,1.01l.005.011a32.107,32.107,0,0,0-53.2,0l0-.011A1,1,0,0,0,5.336,37.107ZM61.184,42.6a.753.753,0,0,0-.056.057A31.622,31.622,0,0,0,59.05,38.8a.993.993,0,0,0,.708.225L60,39a2,2,0,0,1,2,2A1.978,1.978,0,0,1,61.184,42.6ZM32,26A29.854,29.854,0,0,1,58.822,42.48a32.082,32.082,0,0,0-53.644,0A29.854,29.854,0,0,1,32,26ZM2.6,54a30.01,30.01,0,0,1,58.8,0Z"/></g></svg>