<svg xmlns="http://www.w3.org/2000/svg" data-name="Layer 1" viewBox="0 0 512 512"><circle cx="283.78" cy="340.76" r="108.91" fill="#ffefd2"/><circle cx="283.78" cy="340.76" r="75.57" fill="#ffefd2"/><circle cx="283.78" cy="340.76" r="42.23" fill="#ffefd2"/><circle cx="194.88" cy="340.76" r="75.57" fill="#ffefd2"/><circle cx="194.88" cy="340.76" r="42.23" fill="#ffefd2"/><polygon fill="#eaa998" points="330.09 504.5 181.91 504.5 193.03 462.27 318.98 462.27 330.09 504.5"/><polygon fill="#e49280" points="318.98 462.27 288.98 462.27 300.09 504.5 330.09 504.5 318.98 462.27"/><path fill="#e49280" d="M256,474.85h0A164.84,164.84,0,0,1,96.12,350.19h0a6.38,6.38,0,0,1,6.2-7.95H409.68a6.38,6.38,0,0,1,6.2,7.95h0A164.84,164.84,0,0,1,256,474.85Z"/><path fill="#dd7f66" d="M409.68,342.24H383.94A164.85,164.85,0,0,1,226,459.85h0a164.56,164.56,0,0,1-58.3-10.64A164.45,164.45,0,0,0,256,474.85h0A164.84,164.84,0,0,0,415.88,350.19h0A6.38,6.38,0,0,0,409.68,342.24Z"/><path fill="#554e56" d="M504.5,512H7.5a7.5,7.5,0,0,1,0-15h497a7.5,7.5,0,0,1,0,15Z"/><path d="M504.5,497H335.87l-8-30.31A172.12,172.12,0,0,0,423.16,352a13.9,13.9,0,0,0-13.48-17.28H400A116.55,116.55,0,0,0,283.78,224.35,115.26,115.26,0,0,0,202,258c-2.34-.2-4.71-.32-7.1-.32a83.16,83.16,0,0,0-82.83,77.05h-9.73A13.9,13.9,0,0,0,88.84,352a172.12,172.12,0,0,0,95.27,114.67l-8,30.31H7.5a7.5,7.5,0,0,0,0,15h497a7.5,7.5,0,0,0,0-15ZM283.78,239.35A101.54,101.54,0,0,1,385,334.74h-18.4a83.16,83.16,0,0,0-82.83-77.05,82.25,82.25,0,0,0-44.46,12.94,82.74,82.74,0,0,0-19-8.94A100.25,100.25,0,0,1,283.78,239.35Zm0,51.68a49.65,49.65,0,0,0-19.59,4A83.15,83.15,0,0,0,252,280.56a67.43,67.43,0,0,1,31.75-7.87,68.14,68.14,0,0,1,67.79,62.05H333.13A49.79,49.79,0,0,0,283.78,291ZM318,334.74H277.71a82.76,82.76,0,0,0-6.35-26.4A34.69,34.69,0,0,1,318,334.74Zm-123.1-62.05a68.15,68.15,0,0,1,67.79,62.05H244.23a49.72,49.72,0,0,0-98.71,0H127.09A68.14,68.14,0,0,1,194.88,272.69Zm34.19,62.05H160.68a34.72,34.72,0,0,1,68.39,0Zm-125.33,15H408.26A157.16,157.16,0,0,1,317.31,455l-.24,0a7.53,7.53,0,0,0-2.11.91,157.91,157.91,0,0,1-117.92,0,7.53,7.53,0,0,0-2.11-.91l-.24,0A157.16,157.16,0,0,1,103.74,349.74ZM191.64,497l6.48-24.61a173.16,173.16,0,0,0,115.76,0L320.36,497ZM176.56,245.62a7.46,7.46,0,0,0,4.69-1.65c37.47-30.06,53.71-56.15,49.64-79.74-1.29-7.52-4.14-13.18-6.9-18.66a80.56,80.56,0,0,1-5.4-12.49l36.22-9.22c2.62,6.18,6.35,11,9.77,15.5,4.63,6,8.64,11.26,9.46,18.94,1.09,10.16-3.67,21.34-14.16,33.24a7.5,7.5,0,1,0,11.24,9.92c13.4-15.18,19.4-30.24,17.84-44.76-1.28-11.86-7.23-19.62-12.48-26.47a68.25,68.25,0,0,1-6.88-10.14L506.35,59.77a7.5,7.5,0,0,0-3.7-14.54L266.51,105.39c.6-10,6.09-21.26,16.35-33.65l223.49-57A7.5,7.5,0,0,0,502.65.23l-306,78A7.5,7.5,0,0,0,198.49,93a7.4,7.4,0,0,0,1.86-.23l8.82-2.25c-5.54,11-8.16,21.48-7.78,31.47l-12.74,3.24A7.5,7.5,0,0,0,190.49,140a7.4,7.4,0,0,0,1.86-.23l11.69-3a92.77,92.77,0,0,0,6.55,15.52c2.47,4.91,4.6,9.15,5.52,14.46,3,17.24-12.33,39.89-44.25,65.5a7.5,7.5,0,0,0,4.7,13.35Zm39.85-127.46c.52-10,5-21,13.48-32.92l30.63-7.81c-6.46,11.11-9.48,21.74-9,31.79Z"/></svg>