<svg xmlns="http://www.w3.org/2000/svg" id="Layer_1" enable-background="new 0 0 64 64" viewBox="0 0 64 64"><path fill="#e6ac43" d="M8.7,11.1c-11.6,11.6-11.6,30.3,0,41.8s30.3,11.6,41.8,0c3-3,5.2-6.5,6.7-10.3l-2.6-0.9l-7.3-2.6l0,0L44,37.9
		l-15.1-5.4l0,0L28,32.2l1.1-0.4l0,0l3.3-1.2l2-0.7l20.4-7.3l2.6-0.9c-1.4-3.9-3.7-7.5-6.8-10.7C39-0.5,20.2-0.5,8.7,11.1z"/><path fill="#fcd66f" d="M29.1,31.8l3.3-1.2l2-0.7l20.4-7.3c-1.3-3.5-3.3-6.8-6.2-9.6C38.1,2.6,21.1,2.6,10.6,13
		C0.2,23.5,0.2,40.5,10.6,51c10.5,10.5,27.5,10.5,37.9,0c2.7-2.7,4.7-5.9,6-9.2l-7.3-2.6l0,0L44,37.9l-15.1-5.4l0,0L28,32.2
		L29.1,31.8L29.1,31.8z"/><path fill="#f7747e" d="M19.4 16.8c1.4 1.4 1.4 3.6 0 5-1.4 1.4-3.6 1.4-5 0-1.4-1.4-1.4-3.6 0-5C15.8 15.4 18 15.4 19.4 16.8zM11.8 36.8c1.7-.9 3.8-.2 4.7 1.5.9 1.7.2 3.8-1.5 4.7-1.7.9-3.8.2-4.7-1.5C9.4 39.8 10.1 37.7 11.8 36.8zM27.6 50.3c-.4-2.4 1.3-4.6 3.6-5s4.6 1.3 5 3.6c.4 2.4-1.3 4.6-3.6 5C30.2 54.3 28 52.7 27.6 50.3zM40.4 17.7c-.8 1.5-2.7 2.2-4.2 1.4-1.5-.8-2.2-2.7-1.4-4.2.8-1.5 2.7-2.2 4.2-1.4C40.6 14.2 41.2 16.1 40.4 17.7z"/><path fill="#e6ac43" d="M39.2,30.9l-0.9,0.3l-2.7,1l12.4,4.4l5.7,2l6.1,2.2l2.6,0.9c2.2-6.2,2.2-13,0.1-19.2l-2.6,0.9L39.2,30.9z"/><path fill="#fcd66f" d="M39.2,30.9l-0.9,0.3l-2.7,1l12.4,4.4l5.7,2l6.1,2.2c1.9-5.6,2-11.7,0.1-17.3L39.2,30.9z"/><path fill="#f7747e" d="M55.8,35.6c-0.2,1.4-1.1,2.5-2.2,3l-5.7-2c-0.3-0.7-0.4-1.5-0.3-2.3c0.4-2.3,2.5-3.8,4.7-3.4
			C54.6,31.3,56.1,33.4,55.8,35.6z"/><path fill="#34afaa" d="M33.7 29c.3.3.5.6.6.9l-2 .7c-.1 0-.1-.1-.2-.1-.7-.7-1-1.6-.6-2.1C32 28.1 33 28.3 33.7 29zM25.9 9.6c1 .3 1.7.9 1.5 1.5-.2.6-1.1.8-2.1.5-1-.3-1.7-.9-1.5-1.5C24 9.5 24.9 9.3 25.9 9.6zM49.8 20.6c1.1 1.1 1.5 2.6.9 3.3-.7.7-2.1.3-3.3-.9-1.1-1.1-1.5-2.6-.9-3.3C47.2 19.1 48.6 19.5 49.8 20.6zM22.5 48.4c1.9.4 3.3 1.6 3.1 2.7-.2 1.1-2 1.7-3.9 1.3-1.9-.4-3.3-1.6-3.1-2.7C18.8 48.5 20.5 48 22.5 48.4zM20.3 30.7c-.1 2-1.1 3.5-2.2 3.4-1.1-.1-1.9-1.7-1.8-3.7.1-2 1.1-3.5 2.2-3.4C19.6 27.1 20.4 28.7 20.3 30.7zM44.7 45.2c-.1 2-1.1 3.5-2.2 3.4-1.1-.1-1.9-1.7-1.8-3.7.1-2 1.1-3.5 2.2-3.4C44 41.6 44.8 43.2 44.7 45.2z"/><path fill="#fce0b9" d="M33 36.9c-3.4.2-4 .7-1.5 4-3.6-2.2-4.2-1.7-4.4 1.9.2-3.5.1-3.9-.9-.1.2-4.6-.5-4.9-4.4-3.7 3.9-1.3 4.7-1.6 5.9-2.8-.1.1.1-.5 1.1-3.6l0 0c-.9 3-.2 3.6 3.9 3.2C29.1 36.9 29.5 37 33 36.9zM29.2 31.3c-.1.2-.1.3-.2.5l0 0C29.1 31.7 29.2 31.5 29.2 31.3zM14.5 27.1c-2.5.1-3 .3-1.4 2.5-2.4-1.5-2.6-1-2.7 1.6.1-2.6.1-3.1-.5-.6.1-3-.4-3-3.3-2.1 2.9-.9 3.4-1.1 4.2-1.9-.1.1.1-.5 1-3.3C11 26.2 11 26.7 14 26.4 11.5 27.2 12 27.2 14.5 27.1zM26.3 23.1c1.7-1.9 2-2.4-.8-2.8 2.8-.7 2.6-1.2.8-3.2 1.8 2 2.1 2.3.8 0 2.1 2.3 2.5 1.9 3.9-.8-1.4 2.8-1.7 3.3-1.7 4.4 0-.1.3.4 1.6 3.1-1.4-2.7-1.7-3-3.7-.7C28.4 20.8 28 21.2 26.3 23.1zM46.5 44.7c1.2-1.3 1.4-1.7-.6-1.9 1.9-.5 1.8-.8.5-2.2 1.2 1.4 1.5 1.6.5 0 1.5 1.6 1.7 1.3 2.7-.6-1 1.9-1.2 2.3-1.2 3.1 0-.1.2.3 1.1 2.2-.9-1.9-1.2-2.1-2.6-.5C48 43.1 47.7 43.4 46.5 44.7z"/></svg>