<svg xmlns="http://www.w3.org/2000/svg" viewBox="0 0 64 64"><path d="M61.51,36.63a5.09,5.09,0,0,0,.78-2.52,3.17,3.17,0,0,0,.48-1.26c.07-.47.15-.94.23-1.4.35-2.05.71-4.17-.09-5.95-1-2.34-3.33-3.57-5.35-4.65A15.7,15.7,0,0,1,54.65,19a17.45,17.45,0,0,1-2.25-2.76c-1.43-2-2.91-4.05-5.33-4.63-1.91-.46-3.85.3-5.75,1.15L34,7.2a1,1,0,0,0-1.45.26L30,11.53,25.69,8.81a1,1,0,0,0-1.34.24L19.6,15.33l-.54-.11c-2.2-.47-4.48-1-6.42,0-2.24,1.08-3.24,3.41-4.22,5.66A17.59,17.59,0,0,1,6.8,24a14.42,14.42,0,0,1-2.45,2.42C2.61,27.93.63,29.62.11,32.13-.29,34,.51,36,1.29,38l.36.92A31.94,31.94,0,0,0,0,49v5a3,3,0,0,0,3,3H61a3,3,0,0,0,3-3V49A31.88,31.88,0,0,0,61.51,36.63ZM60,33.46c-.17-.31-.35-.62-.53-.92-.08-.14-.17-.27-.25-.4-.18-.3-.37-.58-.56-.87l-.29-.43c-.19-.26-.37-.53-.56-.78l-.36-.48c-.18-.23-.35-.46-.54-.68l-.43-.53-.51-.58-.51-.57L55,26.74l-.6-.61-.41-.39c-.23-.22-.46-.44-.7-.65l-.33-.29-.83-.69-.22-.18c-.32-.25-.64-.5-1-.74l-.06,0a32.29,32.29,0,0,0-7.49-4.07l.32,0,.26,0c.24,0,.5.08.76.14l.37.09.68.18.55.18.56.19.68.26c.17.07.33.13.49.21s.49.22.74.34l.47.22.79.42.41.23c.29.16.58.34.87.53l.33.2q.59.38,1.17.81c.33.23.64.48,1,.72l.33.27.56.48L55,25l.49.46.38.37.67.69.31.36q.22.24.42.48l.26.33c.18.22.35.45.52.67a.64.64,0,0,0,.1.13c.21.3.41.6.59.9l0,0c.17.28.33.57.49.86a.47.47,0,0,0,.05.1c.17.33.32.66.45,1v0c.11.28.2.55.28.81a2,2,0,0,0,.07.26c0,.24.1.46.13.68s0,.15,0,.22a4.55,4.55,0,0,1,0,.73,1.74,1.74,0,0,1-.11-.18C60.11,33.72,60,33.59,60,33.46ZM46.6,13.56c1.7.41,2.9,2.08,4.17,3.86a18.8,18.8,0,0,0,2.53,3.06,16.46,16.46,0,0,0,3.31,2.13c1.83,1,3.71,2,4.48,3.7a6.58,6.58,0,0,1,.16,3.44l-.07-.13c0-.08-.07-.16-.12-.24s-.17-.3-.25-.45l-.21-.38-.41-.64-.27-.42-.45-.61-.33-.44-.5-.6-.37-.44-.55-.58-.41-.43-.62-.59-.42-.4c-.23-.21-.48-.41-.73-.62l-.38-.33c-.39-.31-.78-.61-1.19-.91s-.77-.54-1.15-.8l-.18-.11-1-.64-.09,0a26.27,26.27,0,0,0-2.41-1.24l-6-4.54A5.91,5.91,0,0,1,46.6,13.56Zm-13-4.11,10.06,7.66a10.63,10.63,0,0,0-2.64,0H41a6.6,6.6,0,0,0-2.06.6l-.1,0a31.71,31.71,0,0,0-10.09-.57l2.36-3.72h0ZM12.29,23.82c-.36.28-.71.56-1,.86l-.19.16c-.29.25-.58.51-.86.78-.12.1-.23.21-.34.32l-.69.68-.46.48-.53.57-.57.66-.38.45c-.22.27-.44.55-.65.83L6.3,30c-.23.32-.45.63-.67,1a2.83,2.83,0,0,0-.2.28l-.13.19a.34.34,0,0,1,0-.1,4.72,4.72,0,0,1,0-.64c0-.06,0-.11,0-.17a5.67,5.67,0,0,1,.23-.85l.09-.23c.09-.23.19-.47.31-.71,0-.09.08-.18.13-.27.17-.31.35-.63.57-1A21.52,21.52,0,0,1,13.9,21a25.43,25.43,0,0,1,2.6-1.32h0q.48-.21,1-.39l.38-.15.71-.24c.21-.07.42-.15.64-.21s.51-.14.76-.21l.46-.12.37-.07A13.89,13.89,0,0,1,24.06,18a31.84,31.84,0,0,0-11.73,5.79ZM25.39,11l3.49,2.23-2,3.21a8.09,8.09,0,0,0-1.45-.33h0a13.45,13.45,0,0,0-3.89.06ZM13.51,17a3.92,3.92,0,0,1,1.7-.34,14.11,14.11,0,0,1,2.73.37,23.28,23.28,0,0,0-2.45.95l-.11.05c-.35.16-.71.34-1.07.52l-.18.09c-.41.21-.82.43-1.23.67-.74.43-1.44.88-2.12,1.36l-.13.08C11.39,19.1,12.18,17.64,13.51,17ZM2.06,32.53a5.52,5.52,0,0,1,1.33-2.45.62.62,0,0,0,0,.13c0,.19,0,.38-.07.56s0,.27,0,.4a4.93,4.93,0,0,0,0,.55c0,.12,0,.25,0,.36a4.76,4.76,0,0,0,.13.57,2.45,2.45,0,0,0,.08.29,4.44,4.44,0,0,0,.35.77c-.43.78-.82,1.59-1.19,2.41A6.92,6.92,0,0,1,2.06,32.53ZM62,54a1,1,0,0,1-1,1H3a1,1,0,0,1-1-1V49A29.85,29.85,0,0,1,6.15,33.8c.15-.25.3-.5.46-.75L7,32.41l.52-.75.4-.56c.31-.41.62-.81,1-1.21l.29-.33c.26-.31.53-.62.81-.91.1-.12.21-.22.31-.33.29-.31.59-.61.89-.9a2.73,2.73,0,0,1,.25-.23c.37-.36.75-.7,1.14-1l0,0a29.93,29.93,0,0,1,13.92-6.62h0c.5-.09,1-.17,1.52-.23l.26,0,.14,0,1.27-.12.33,0c.37,0,.73,0,1.09-.05h.49c.35,0,.7,0,1,0h.48l1.21.07.24,0a31.63,31.63,0,0,1,4.49.75l1.22.32.17,0a29.85,29.85,0,0,1,4.78,1.88l.06,0q.72.36,1.41.75l.17.1c.44.25.87.52,1.29.79l.15.1a30.4,30.4,0,0,1,4,3.09l.22.21c.31.3.62.6.92.91l.34.36c.26.27.5.54.75.82s.25.28.37.43.45.55.68.84.23.28.34.43q.47.61.9,1.26l.3.47c.19.29.38.58.56.88s.24.41.35.62.3.53.44.8.22.42.33.63l.42.88A29.77,29.77,0,0,1,62,49Z"/><path d="M16.24 32.5a3 3 0 0 0-3 3 1 1 0 0 0 2 0 1 1 0 1 1 2 0 1 1 0 0 0 2 0A3 3 0 0 0 16.24 32.5zM47.76 32.6a3 3 0 0 0-3 3 1 1 0 0 0 2 0 1 1 0 0 1 2 0 1 1 0 0 0 2 0A3 3 0 0 0 47.76 32.6zM36 35.82a1 1 0 0 0-1 1 1 1 0 0 1-2 0 1 1 0 1 0-2 0 1 1 0 0 1-2 0 1 1 0 1 0-2 0A3 3 0 0 0 32 39a3 3 0 0 0 5-2.22A1 1 0 0 0 36 35.82zM49.26 39.5h-3a1 1 0 1 0 0 2h3a1 1 0 0 0 0-2zM17.74 39.5h-3a1 1 0 0 0 0 2h3a1 1 0 0 0 0-2z"/></svg>